<?xml version="1.0" encoding="UTF-8"?>
<svg version="1.1" xmlns="http://www.w3.org/2000/svg" width="251" height="201">
<path d="M0 0 C82.83 0 165.66 0 251 0 C251 66.33 251 132.66 251 201 C168.17 201 85.34 201 0 201 C0 134.67 0 68.34 0 0 Z " fill="#D7CABE" transform="translate(0,0)"/>
<path d="M0 0 C2 2 2 2 2.1953125 4.3828125 C2.13020833 6.921875 2.06510417 9.4609375 2 12 C5.3 12 8.6 12 12 12 C13 16 13 16 13 20 C12.34 20 11.68 20 11 20 C11 20.66 11 21.32 11 22 C9.66666667 23.33333333 8.33333333 24.66666667 7 26 C2.53691906 32.44667247 2.75025308 39.19712022 2.48242188 46.76171875 C2.28996531 50.86503796 2.02353832 54.32333376 0 58 C-4.9885546 61.32570307 -10.0113934 61.20615995 -15.875 61.25 C-16.55691406 61.270625 -17.23882812 61.29125 -17.94140625 61.3125 C-23.78111202 61.356993 -28.00295189 59.63071156 -33.1394043 56.8359375 C-35.90254587 54.10941544 -35.71821741 51.77320962 -36.01171875 47.953125 C-36.07027542 47.26369812 -36.12883209 46.57427124 -36.18916321 45.86395264 C-36.3727074 43.66030194 -36.53074101 41.45570249 -36.6875 39.25 C-36.86063924 37.05931769 -37.03894334 34.86910203 -37.2179718 32.67889404 C-37.37842049 30.68143187 -37.52682017 28.68301263 -37.67456055 26.68457031 C-37.99149607 23.09628007 -38.47123526 19.56238994 -39 16 C-39.79161933 6.20208861 -39.79161933 6.20208861 -37.3125 2.4375 C-26.9753731 -3.98828159 -11.342359 -3.79640942 0 0 Z " fill="#AE9B8D" transform="translate(160,86)"/>
<path d="M0 0 C2 2 2 2 2.1953125 4.3828125 C2.17210937 5.28773437 2.14890625 6.19265625 2.125 7.125 C2.10695312 8.03507812 2.08890625 8.94515625 2.0703125 9.8828125 C2.04710937 10.58148438 2.02390625 11.28015625 2 12 C3.32 12.33 4.64 12.66 6 13 C4.35 13.33 2.7 13.66 1 14 C1.56589844 14.12117188 2.13179687 14.24234375 2.71484375 14.3671875 C3.44832031 14.53476563 4.18179688 14.70234375 4.9375 14.875 C5.66839844 15.03742188 6.39929688 15.19984375 7.15234375 15.3671875 C9 16 9 16 10 18 C9.41879395 17.93288818 8.83758789 17.86577637 8.23876953 17.79663086 C0.41488466 16.94741368 -7.39018503 16.68367816 -15.25390625 16.48242188 C-23.20827938 16.21389845 -30.25208262 15.6391932 -37 11 C-36.01 12.485 -36.01 12.485 -35 14 C-35 14.99 -35 15.98 -35 17 C-30.05 17.99 -25.1 18.98 -20 20 C-20 25.94 -20 31.88 -20 38 C-26.7627065 38 -28.46223757 37.71237343 -34 35 C-33.67 36.32 -33.34 37.64 -33 39 C-23.66201373 41.53233526 -14.52174306 41.78443461 -5 40 C-5 40.66 -5 41.32 -5 42 C-9.51959364 44.24637229 -13.5042856 44.33393012 -18.4375 44.3125 C-19.17548828 44.32861328 -19.91347656 44.34472656 -20.67382812 44.36132812 C-25.52808286 44.36564302 -28.73924719 43.55915264 -33 41 C-32.51792644 43.50358872 -32.51792644 43.50358872 -31 46 C-23.12081467 49.59701939 -13.33466654 48.51539392 -5 47 C-5 47.66 -5 48.32 -5 49 C-12.82241518 51.98393041 -21.94730443 52.48704244 -29.875 49.5 C-30.90625 49.005 -31.9375 48.51 -33 48 C-32.690625 48.763125 -32.38125 49.52625 -32.0625 50.3125 C-31.32106407 52.18789677 -30.63771783 54.08684652 -30 56 C-24.95830591 58.40156406 -20.07556 58.23801002 -14.625 58.125 C-13.37783203 58.11146484 -13.37783203 58.11146484 -12.10546875 58.09765625 C-10.07018663 58.0742622 -8.03505436 58.03839725 -6 58 C-6 58.66 -6 59.32 -6 60 C-9.0826099 61.54130495 -12.30720931 61.22561558 -15.6875 61.25 C-16.38294922 61.270625 -17.07839844 61.29125 -17.79492188 61.3125 C-23.70078141 61.35661473 -27.94108304 59.66494475 -33.13867188 56.8359375 C-35.9027479 54.10956661 -35.71817686 51.77373737 -36.01171875 47.953125 C-36.07027542 47.26369812 -36.12883209 46.57427124 -36.18916321 45.86395264 C-36.3727074 43.66030194 -36.53074101 41.45570249 -36.6875 39.25 C-36.86063924 37.05931769 -37.03894334 34.86910203 -37.2179718 32.67889404 C-37.37842049 30.68143187 -37.52682017 28.68301263 -37.67456055 26.68457031 C-37.99149607 23.09628007 -38.47123526 19.56238994 -39 16 C-39.79161933 6.20208861 -39.79161933 6.20208861 -37.3125 2.4375 C-26.9753731 -3.98828159 -11.342359 -3.79640942 0 0 Z " fill="#3A1C14" transform="translate(160,86)"/>
<path d="M0 0 C0 0.66 0 1.32 0 2 C1.11375 1.835 2.2275 1.67 3.375 1.5 C8.25510338 0.87905495 13.08861948 0.90942126 18 1 C18 1.33 18 1.66 18 2 C15.36 2.33 12.72 2.66 10 3 C12.64 3.33 15.28 3.66 18 4 C18 4.66 18 5.32 18 6 C17.34 6 16.68 6 16 6 C16 6.66 16 7.32 16 8 C16.99 8.33 17.98 8.66 19 9 C17.02 9.99 17.02 9.99 15 11 C15.33 12.32 15.66 13.64 16 15 C16.70511719 14.66226563 17.41023438 14.32453125 18.13671875 13.9765625 C21.37014446 12.87375701 23.44257702 12.96898518 26.8125 13.375 C27.78832031 13.48585938 28.76414063 13.59671875 29.76953125 13.7109375 C30.50558594 13.80632813 31.24164063 13.90171875 32 14 C32 14.66 32 15.32 32 16 C23.585 16.495 23.585 16.495 15 17 C15 17.99 15 18.98 15 20 C17.97 20.33 20.94 20.66 24 21 C24 21.66 24 22.32 24 23 C22.89140625 22.98839844 21.7828125 22.97679688 20.640625 22.96484375 C19.17708502 22.95546208 17.71354322 22.94636229 16.25 22.9375 C15.52039063 22.92912109 14.79078125 22.92074219 14.0390625 22.91210938 C10.51329442 22.89608316 7.38965084 23.04707287 4 24 C4 23.34 4 22.68 4 22 C3.01 22 2.02 22 1 22 C0.67 22.99 0.34 23.98 0 25 C-0.66 24.01 -1.32 23.02 -2 22 C-1.95875 23.258125 -1.9175 24.51625 -1.875 25.8125 C-1.7609626 29.29064073 -1.94074319 29.91111478 -4 33 C-4.66 32.67 -5.32 32.34 -6 32 C-5.67 31.34 -5.34 30.68 -5 30 C-4.69811231 24.86790929 -5.57488563 20.89883064 -7 16 C-7.125 12.5625 -7.125 12.5625 -7 10 C-7.99 10.495 -7.99 10.495 -9 11 C-8.96447021 11.55985596 -8.92894043 12.11971191 -8.89233398 12.6965332 C-8.73465957 15.23485442 -8.58598293 17.77362523 -8.4375 20.3125 C-8.38142578 21.19357422 -8.32535156 22.07464844 -8.26757812 22.98242188 C-8.21923828 23.82998047 -8.17089844 24.67753906 -8.12109375 25.55078125 C-8.0739624 26.33106689 -8.02683105 27.11135254 -7.97827148 27.9152832 C-8 30 -8 30 -9 33 C-9.66 33 -10.32 33 -11 33 C-10.98839844 32.24074219 -10.97679687 31.48148438 -10.96484375 30.69921875 C-10.95582031 29.70535156 -10.94679687 28.71148437 -10.9375 27.6875 C-10.92009766 26.20830078 -10.92009766 26.20830078 -10.90234375 24.69921875 C-10.87670138 21.90036151 -10.87670138 21.90036151 -12 19 C-12.14554833 16.8783532 -12.22080412 14.75143294 -12.25 12.625 C-12.27578125 11.50351562 -12.3015625 10.38203125 -12.328125 9.2265625 C-11.96720608 5.67752648 -11.1241409 3.83391481 -9 1 C-6.07267287 -0.26850842 -3.159692 -0.08776922 0 0 Z " fill="#D3C5BB" transform="translate(152,48)"/>
<path d="M0 0 C1.5 1.3125 1.5 1.3125 3 3 C3 3.99 3 4.98 3 6 C7.95 6.99 12.9 7.98 18 9 C18 14.94 18 20.88 18 27 C11.2372935 27 9.53776243 26.71237343 4 24 C4.33 25.32 4.66 26.64 5 28 C14.33798627 30.53233526 23.47825694 30.78443461 33 29 C33 29.66 33 30.32 33 31 C28.48040636 33.24637229 24.4957144 33.33393012 19.5625 33.3125 C18.82451172 33.32861328 18.08652344 33.34472656 17.32617188 33.36132812 C12.47191714 33.36564302 9.26075281 32.55915264 5 30 C5.48207356 32.50358872 5.48207356 32.50358872 7 35 C14.87918533 38.59701939 24.66533346 37.51539392 33 36 C33 36.66 33 37.32 33 38 C25.17758482 40.98393041 16.05269557 41.48704244 8.125 38.5 C7.09375 38.005 6.0625 37.51 5 37 C5.309375 37.763125 5.61875 38.52625 5.9375 39.3125 C6.67893593 41.18789677 7.36228217 43.08684652 8 45 C13.04169409 47.40156406 17.92444 47.23801002 23.375 47.125 C24.62216797 47.11146484 24.62216797 47.11146484 25.89453125 47.09765625 C27.92981337 47.0742622 29.96494564 47.03839725 32 47 C32 47.66 32 48.32 32 49 C28.9173901 50.54130495 25.69279069 50.22561558 22.3125 50.25 C21.61705078 50.270625 20.92160156 50.29125 20.20507812 50.3125 C13.75477957 50.3606815 7.70986288 48.61237063 3 44 C2.27050781 40.91235352 2.27050781 40.91235352 1.953125 37.12890625 C1.89219666 36.45133774 1.83126831 35.77376923 1.76849365 35.07566833 C1.64255903 33.63816889 1.52544477 32.19987342 1.41650391 30.76098633 C1.25282309 28.59977562 1.06466295 26.44192055 0.87109375 24.28320312 C0.17223379 16.18294007 -0.17498489 8.13388115 0 0 Z " fill="#341D17" transform="translate(122,97)"/>
<path d="M0 0 C0.66 0.28875 1.32 0.5775 2 0.875 C9.69803746 3.76176405 16.77788397 4.35457939 24.9375 4.5625 C32.01535312 4.77002283 38.97179461 5.11322956 46 6 C42.37 5.01 38.74 4.02 35 3 C35 2.67 35 2.34 35 2 C39.62 1.67 44.24 1.34 49 1 C50 5 50 5 50 9 C49.34 9 48.68 9 48 9 C48 9.66 48 10.32 48 11 C47.113125 10.649375 46.22625 10.29875 45.3125 9.9375 C41.93796874 8.98244398 40.30313848 9.02848868 37 10 C37.495 11.485 37.495 11.485 38 13 C38 13.99 38 14.98 38 16 C37.01 16.495 37.01 16.495 36 17 C35.505 18.485 35.505 18.485 35 20 C34.01 20.33 33.02 20.66 32 21 C32 20.34 32 19.68 32 19 C30.783125 19.33 29.56625 19.66 28.3125 20 C25.12789396 20.80322213 22.3027157 21.20641973 19 21 C19.33 21.99 19.66 22.98 20 24 C19.67 24.99 19.34 25.98 19 27 C21.97851562 26.95117188 21.97851562 26.95117188 24.95703125 26.90234375 C27 27 27 27 30 28 C30 28.66 30 29.32 30 30 C22.10205548 32.37129569 13.34575433 31.5880215 5.609375 29.046875 C4 28 4 28 3 24 C7.62 24.99 12.24 25.98 17 27 C17 21.06 17 15.12 17 9 C14.69 9 12.38 9 10 9 C7.06463522 8.44688994 4.52528475 7.61452632 2 6 C0.5 2.8125 0.5 2.8125 0 0 Z " fill="#AE9688" transform="translate(123,97)"/>
<path d="M0 0 C0.99 0 1.98 0 3 0 C2.34 1.65 1.68 3.3 1 5 C1.99 5 2.98 5 4 5 C4.33 3.68 4.66 2.36 5 1 C6.65 0.67 8.3 0.34 10 0 C10 2 10 2 8.5 3.625 C8.005 4.07875 7.51 4.5325 7 5 C7.66 5 8.32 5 9 5 C9 5.66 9 6.32 9 7 C8.34 7 7.68 7 7 7 C7 9.64 7 12.28 7 15 C6.01 15 5.02 15 4 15 C4 12.36 4 9.72 4 7 C3.01 7 2.02 7 1 7 C0.94577053 8.4370809 0.90710277 9.87475462 0.875 11.3125 C0.85179688 12.11300781 0.82859375 12.91351563 0.8046875 13.73828125 C0.84182678 16.28388576 0.84182678 16.28388576 3 19 C3 20.32 3 21.64 3 23 C1.02 23.33 -0.96 23.66 -3 24 C-1.35 24.33 0.3 24.66 2 25 C2 25.99 2 26.98 2 28 C-3.5255814 28.1255814 -3.5255814 28.1255814 -6.125 27.4375 C-8.35789526 26.76602311 -8.35789526 26.76602311 -12 28 C-12 25.03 -12 22.06 -12 19 C-13.32 19 -14.64 19 -16 19 C-16 21.97 -16 24.94 -16 28 C-16.99 28 -17.98 28 -19 28 C-19 23.71 -19 19.42 -19 15 C-20.32 14.34 -21.64 13.68 -23 13 C-23.3125 10.75 -23.3125 10.75 -23 8 C-20.75 5.6875 -20.75 5.6875 -18 4 C-16.68 4 -15.36 4 -14 4 C-13.67 4.66 -13.34 5.32 -13 6 C-11.9275 5.649375 -10.855 5.29875 -9.75 4.9375 C-5.07692308 3.76923077 -5.07692308 3.76923077 -2 5 C-1.855625 4.360625 -1.71125 3.72125 -1.5625 3.0625 C-1 1 -1 1 0 0 Z " fill="#C9B9B3" transform="translate(90,105)"/>
<path d="M0 0 C0.33 0 0.66 0 1 0 C1.00386719 1.12148437 1.00386719 1.12148437 1.0078125 2.265625 C1.10139895 8.6896405 1.10139895 8.6896405 4.8125 13.625 C9.53251331 15.66108417 13.61406631 16.20298464 18.75 16.5625 C19.92046875 16.64628906 21.0909375 16.73007813 22.296875 16.81640625 C23.63492188 16.90728516 23.63492188 16.90728516 25 17 C21.91190305 18.76462683 20.76687864 19 17 19 C17 19.99 17 20.98 17 22 C17.66 22 18.32 22 19 22 C19 21.34 19 20.68 19 20 C19.66 20 20.32 20 21 20 C21.495 21.485 21.495 21.485 22 23 C18.62902617 24.49821059 16.79557881 25 13 25 C12.67 25.66 12.34 26.32 12 27 C10.02 27 8.04 27 6 27 C6 27.99 6 28.98 6 30 C5.34 30.66 4.68 31.32 4 32 C4.66 32.66 5.32 33.32 6 34 C-0.1105424 34.11269443 -5.95170514 33.89604368 -12 33 C-12 32.01 -12 31.02 -12 30 C-12.66 29.34 -13.32 28.68 -14 28 C-13.2575 26.8553125 -13.2575 26.8553125 -12.5 25.6875 C-10.75631692 23.07636249 -10.75631692 23.07636249 -11 20 C-11.33 19.34 -11.66 18.68 -12 18 C-14.35599235 17.53248212 -14.35599235 17.53248212 -17.0625 17.375 C-17.98160156 17.30023438 -18.90070313 17.22546875 -19.84765625 17.1484375 C-20.55792969 17.09945312 -21.26820312 17.05046875 -22 17 C-22 16.67 -22 16.34 -22 16 C-17.71 16 -13.42 16 -9 16 C-8.67 14.35 -8.34 12.7 -8 11 C-5.36 10.67 -2.72 10.34 0 10 C0 6.7 0 3.4 0 0 Z " fill="#D5C8BC" transform="translate(124,130)"/>
<path d="M0 0 C0 0.66 0 1.32 0 2 C0.99 1.608125 1.98 1.21625 3 0.8125 C7.68967699 -0.57809952 10.66925919 1.02457437 15 3 C15 3.33 15 3.66 15 4 C13.35 4.33 11.7 4.66 10 5 C10.7763932 8.0745356 10.7763932 8.0745356 13 10 C9.95613276 10.08226668 7.92824652 9.97608217 5 9 C5.33 11.31 5.66 13.62 6 16 C1.38502956 19.07664696 -3.53633282 18.48202184 -8.875 17.4375 C-9.57625 17.293125 -10.2775 17.14875 -11 17 C-11.99 17.33 -12.98 17.66 -14 18 C-15.72795352 18.06802967 -17.45835365 18.08495645 -19.1875 18.0625 C-20.53908203 18.04896484 -20.53908203 18.04896484 -21.91796875 18.03515625 C-22.60503906 18.02355469 -23.29210937 18.01195312 -24 18 C-24 17.67 -24 17.34 -24 17 C-22.4221875 16.9071875 -22.4221875 16.9071875 -20.8125 16.8125 C-16.31348023 15.85369251 -14.98025935 14.39418426 -12 11 C-11.01 10.34 -10.02 9.68 -9 9 C-9.99 8.67 -10.98 8.34 -12 8 C-12 7.34 -12 6.68 -12 6 C-10.68 6 -9.36 6 -8 6 C-8.33 5.34 -8.66 4.68 -9 4 C-12.02934491 3.34227572 -12.02934491 3.34227572 -15 3 C-15 2.34 -15 1.68 -15 1 C-14.22914063 1.01160156 -13.45828125 1.02320313 -12.6640625 1.03515625 C-11.15972656 1.04869141 -11.15972656 1.04869141 -9.625 1.0625 C-8.12839844 1.07990234 -8.12839844 1.07990234 -6.6015625 1.09765625 C-4.04433149 1.00166409 -2.49131904 0 0 0 Z " fill="#DCCEC4" transform="translate(152,176)"/>
<path d="M0 0 C2.33944736 0.28730055 4.6739143 0.61936779 7 1 C7 1.66 7 2.32 7 3 C7.66 3 8.32 3 9 3 C9 2.34 9 1.68 9 1 C12.375 0.375 12.375 0.375 16 0 C18 2 18 2 18 6 C16.02 6.33 14.04 6.66 12 7 C14.475 7.495 14.475 7.495 17 8 C17.1875 10.375 17.1875 10.375 17 13 C16.01 13.66 15.02 14.32 14 15 C14.99 15.66 15.98 16.32 17 17 C16.125 21.875 16.125 21.875 15 23 C13.33382885 23.04063832 11.66611905 23.042721 10 23 C9.67 22.01 9.34 21.02 9 20 C10.65 20 12.3 20 14 20 C14 19.34 14 18.68 14 18 C13.38125 17.855625 12.7625 17.71125 12.125 17.5625 C10 17 10 17 8 16 C7.34 17.98 6.68 19.96 6 22 C4.125 21.6875 4.125 21.6875 2 21 C1.34 20.01 0.68 19.02 0 18 C-0.99 20.475 -0.99 20.475 -2 23 C-2.99 22.67 -3.98 22.34 -5 22 C-5.94921875 19.71484375 -5.94921875 19.71484375 -6.6875 16.9375 C-6.93886719 16.01839844 -7.19023438 15.09929687 -7.44921875 14.15234375 C-7.63097656 13.44207031 -7.81273438 12.73179688 -8 12 C-7.01 11.67 -6.02 11.34 -5 11 C-4.34 12.65 -3.68 14.3 -3 16 C-2.01 14.35 -1.02 12.7 0 11 C0.99 11.66 1.98 12.32 3 13 C3 13.99 3 14.98 3 16 C3.66 16 4.32 16 5 16 C5.33 14.35 5.66 12.7 6 11 C7.32 11.33 8.64 11.66 10 12 C10 9.53721199 9.14547137 8.14775881 8 6 C6.02 6.33 4.04 6.66 2 7 C3.65 7.33 5.3 7.66 7 8 C7 8.66 7 9.32 7 10 C3.625 10.1875 3.625 10.1875 0 10 C-2 7 -2 7 -1.6875 3.875 C-1 1 -1 1 0 0 Z " fill="#342422" transform="translate(101,110)"/>
<path d="M0 0 C0.33 0 0.66 0 1 0 C1.16271111 2.22673171 1.27871548 4.45690853 1.375 6.6875 C1.47941406 8.54955078 1.47941406 8.54955078 1.5859375 10.44921875 C1 14 1 14 -1.4921875 16.92578125 C-5.32415959 19.66654074 -8.92314152 19.67696114 -13.5 19.5 C-14.23347656 19.50257813 -14.96695313 19.50515625 -15.72265625 19.5078125 C-21.35715465 19.40701646 -25.82060441 18.25204211 -29.875 14.0625 C-31 12 -31 12 -31 8 C-29.96875 8.33 -28.9375 8.66 -27.875 9 C-19.83384878 11.024647 -11.08662533 10.53621302 -3 9 C-3 8.34 -3 7.68 -3 7 C-4.32 6.67 -5.64 6.34 -7 6 C-5.02 5.67 -3.04 5.34 -1 5 C-0.67 3.35 -0.34 1.7 0 0 Z " fill="#B69E8E" transform="translate(158,126)"/>
<path d="M0 0 C0.8765625 0.00064453 1.753125 0.00128906 2.65625 0.00195312 C7.22172557 0.03289385 11.50185622 0.33038419 16 1.1875 C16.99 1.1875 17.98 1.1875 19 1.1875 C19 2.5075 19 3.8275 19 5.1875 C16.03 6.1775 13.06 7.1675 10 8.1875 C10 8.5175 10 8.8475 10 9.1875 C7.4784979 9.26922936 4.95970083 9.32833373 2.4375 9.375 C1.73302734 9.40013672 1.02855469 9.42527344 0.30273438 9.45117188 C-4.88003315 9.52282304 -8.36264182 8.50922598 -13 6.1875 C-10 5.1875 -10 5.1875 -8 5.1875 C-9.98 4.5275 -11.96 3.8675 -14 3.1875 C-14 4.5075 -14 5.8275 -14 7.1875 C-14.66 7.1875 -15.32 7.1875 -16 7.1875 C-16 7.8475 -16 8.5075 -16 9.1875 C-16.66 9.1875 -17.32 9.1875 -18 9.1875 C-17.375 5.8125 -17.375 5.8125 -16 2.1875 C-10.85719752 -0.35124853 -5.59844251 -0.07821354 0 0 Z " fill="#834E3D" transform="translate(142,85.8125)"/>
<path d="M0 0 C0.99 0 1.98 0 3 0 C2.34 1.65 1.68 3.3 1 5 C1.99 5 2.98 5 4 5 C4.33 3.68 4.66 2.36 5 1 C6.65 0.67 8.3 0.34 10 0 C10 2 10 2 8.5 3.625 C8.005 4.07875 7.51 4.5325 7 5 C7.66 5 8.32 5 9 5 C9 5.66 9 6.32 9 7 C8.34 7 7.68 7 7 7 C7 9.64 7 12.28 7 15 C6.01 15 5.02 15 4 15 C4 12.36 4 9.72 4 7 C3.01 7 2.02 7 1 7 C0.94577053 8.4370809 0.90710277 9.87475462 0.875 11.3125 C0.84019531 12.51326172 0.84019531 12.51326172 0.8046875 13.73828125 C0.84182678 16.28388576 0.84182678 16.28388576 3 19 C3 20.32 3 21.64 3 23 C1.02 23.33 -0.96 23.66 -3 24 C-1.35 24.33 0.3 24.66 2 25 C2 25.99 2 26.98 2 28 C-3.4 28.36 -3.4 28.36 -5.875 26.875 C-7.51151479 24.14747535 -7.32502803 22.12026907 -7 19 C-6.01 17.515 -6.01 17.515 -5 16 C-4.01 16 -3.02 16 -2 16 C-2.10699219 15.26394531 -2.21398437 14.52789062 -2.32421875 13.76953125 C-3.30578886 5.77976161 -3.30578886 5.77976161 -1.75 1.8125 C-1.1725 1.214375 -0.595 0.61625 0 0 Z " fill="#33221F" transform="translate(90,105)"/>
<path d="M0 0 C3.58072917 0.84635417 7.16145833 1.69270833 10.7421875 2.5390625 C12.35480469 2.76722656 12.35480469 2.76722656 14 3 C14.66 2.34 15.32 1.68 16 1 C16 6.94 16 12.88 16 19 C13.69 19 11.38 19 9 19 C9.33 18.34 9.66 17.68 10 17 C7.36 16.01 4.72 15.02 2 14 C1.34 9.38 0.68 4.76 0 0 Z " fill="#714B4C" transform="translate(124,105)"/>
<path d="M0 0 C0.66 0 1.32 0 2 0 C2 3.3 2 6.6 2 10 C3.32 10.33 4.64 10.66 6 11 C4.35 11.33 2.7 11.66 1 12 C1.56589844 12.12117188 2.13179687 12.24234375 2.71484375 12.3671875 C3.81505859 12.61855469 3.81505859 12.61855469 4.9375 12.875 C5.66839844 13.03742188 6.39929688 13.19984375 7.15234375 13.3671875 C9 14 9 14 10 16 C9.42169434 15.93361328 8.84338867 15.86722656 8.24755859 15.79882812 C0.30505613 14.93984029 -7.62459677 14.65509176 -15.60546875 14.39453125 C-16.63027344 14.35714844 -17.65507812 14.31976563 -18.7109375 14.28125 C-19.63181152 14.25095703 -20.55268555 14.22066406 -21.50146484 14.18945312 C-23.7877154 14.01609662 -25.80266115 13.63497244 -28 13 C-28 12.34 -28 11.68 -28 11 C-19.09 10.67 -10.18 10.34 -1 10 C-0.67 8.68 -0.34 7.36 0 6 C-0.5662207 6.32597168 -1.13244141 6.65194336 -1.71582031 6.98779297 C-4.21950977 8.09727314 -5.82657918 8.23207325 -8.546875 8.1953125 C-9.81337891 8.18564453 -9.81337891 8.18564453 -11.10546875 8.17578125 C-11.97816406 8.15902344 -12.85085937 8.14226562 -13.75 8.125 C-14.63816406 8.11597656 -15.52632812 8.10695313 -16.44140625 8.09765625 C-18.62788058 8.07414577 -20.81380094 8.04128499 -23 8 C-23 7.67 -23 7.34 -23 7 C-17.555 6.505 -17.555 6.505 -12 6 C-12 5.67 -12 5.34 -12 5 C-7.71 4.34 -3.42 3.68 1 3 C0.67 2.01 0.34 1.02 0 0 Z " fill="#1D0C08" transform="translate(160,88)"/>
<path d="M0 0 C0.79921875 0.11085938 1.5984375 0.22171875 2.421875 0.3359375 C3.02515625 0.43132812 3.6284375 0.52671875 4.25 0.625 C3.82847656 1.36105469 3.40695313 2.09710938 2.97265625 2.85546875 C2.42480469 3.83128906 1.87695312 4.80710937 1.3125 5.8125 C0.49458984 7.25689453 0.49458984 7.25689453 -0.33984375 8.73046875 C-2.96082513 14.11037789 -3.01177009 19.55601168 -3.3125 25.4375 C-3.35568359 26.22576172 -3.39886719 27.01402344 -3.44335938 27.82617188 C-3.54878321 29.75894215 -3.64983094 31.69195026 -3.75 33.625 C-4.74 34.12 -4.74 34.12 -5.75 34.625 C-5.75 27.365 -5.75 20.105 -5.75 12.625 C-9.05 13.285 -12.35 13.945 -15.75 14.625 C-18.41569325 14.69704576 -21.08516044 14.72369776 -23.75 14.625 C-23.75 13.965 -23.75 13.305 -23.75 12.625 C-18.01696495 11.05199038 -13.59340558 10.38172222 -7.75 11.625 C-7.5334375 10.7278125 -7.5334375 10.7278125 -7.3125 9.8125 C-6.8627561 8.06349596 -6.32107659 6.33822977 -5.75 4.625 C-6.74 3.635 -7.73 2.645 -8.75 1.625 C-5.5750906 -0.2828584 -3.64414789 -0.5359041 0 0 Z " fill="#A79282" transform="translate(165.75,105.375)"/>
<path d="M0 0 C0 0.66 0 1.32 0 2 C1.11375 1.835 2.2275 1.67 3.375 1.5 C8.25510338 0.87905495 13.08861948 0.90942126 18 1 C18 1.33 18 1.66 18 2 C9.42 2.99 0.84 3.98 -8 5 C-6.35 5.33 -4.7 5.66 -3 6 C-3.66 6.66 -4.32 7.32 -5 8 C-4.67 8.66 -4.34 9.32 -4 10 C-4.17402344 10.60070313 -4.34804687 11.20140625 -4.52734375 11.8203125 C-5.13535513 14.62419971 -4.50523636 16.18505893 -3.5625 18.875 C-2.32502524 22.72933651 -1.50153346 25.91257436 -2 30 C-2.66 30.99 -3.32 31.98 -4 33 C-4.66 32.67 -5.32 32.34 -6 32 C-5.67 31.34 -5.34 30.68 -5 30 C-4.69811231 24.86790929 -5.57488563 20.89883064 -7 16 C-7.125 12.5625 -7.125 12.5625 -7 10 C-7.99 10.495 -7.99 10.495 -9 11 C-8.96447021 11.55985596 -8.92894043 12.11971191 -8.89233398 12.6965332 C-8.73465957 15.23485442 -8.58598293 17.77362523 -8.4375 20.3125 C-8.38142578 21.19357422 -8.32535156 22.07464844 -8.26757812 22.98242188 C-8.21923828 23.82998047 -8.17089844 24.67753906 -8.12109375 25.55078125 C-8.0739624 26.33106689 -8.02683105 27.11135254 -7.97827148 27.9152832 C-8 30 -8 30 -9 33 C-9.66 33 -10.32 33 -11 33 C-10.98839844 32.24074219 -10.97679687 31.48148438 -10.96484375 30.69921875 C-10.95582031 29.70535156 -10.94679687 28.71148437 -10.9375 27.6875 C-10.92009766 26.20830078 -10.92009766 26.20830078 -10.90234375 24.69921875 C-10.87670138 21.90036151 -10.87670138 21.90036151 -12 19 C-12.14554833 16.8783532 -12.22080412 14.75143294 -12.25 12.625 C-12.27578125 11.50351562 -12.3015625 10.38203125 -12.328125 9.2265625 C-11.96720608 5.67752648 -11.1241409 3.83391481 -9 1 C-6.07267287 -0.26850842 -3.159692 -0.08776922 0 0 Z " fill="#C1B2A5" transform="translate(152,48)"/>
<path d="M0 0 C0 0.99 0 1.98 0 3 C1.32 3.33 2.64 3.66 4 4 C2.35 4.33 0.7 4.66 -1 5 C-2.01540112 9.10223585 -2.01540112 9.10223585 -1 13 C1.32156597 13.40729228 3.6568787 13.74438677 6 14 C6 13.34 6 12.68 6 12 C4.35 12 2.7 12 1 12 C0.67 11.34 0.34 10.68 0 10 C3.25 9.6875 3.25 9.6875 7 10 C9.4375 12.5 9.4375 12.5 11 15 C10.01 15.66 9.02 16.32 8 17 C8 16.34 8 15.68 8 15 C7.01 15 6.02 15 5 15 C4.67 16.65 4.34 18.3 4 20 C3.34 20 2.68 20 2 20 C1.34 18.68 0.68 17.36 0 16 C-2.16343011 18.03268602 -2.16343011 18.03268602 -4 21 C-4.66 19.35 -5.32 17.7 -6 16 C-6.66 16 -7.32 16 -8 16 C-8 17.65 -8 19.3 -8 21 C-8.66 20.01 -9.32 19.02 -10 18 C-10.391875 17.443125 -10.78375 16.88625 -11.1875 16.3125 C-12.44985046 12.71965639 -11.62159278 9.72955667 -11 6 C-10.01 6 -9.02 6 -8 6 C-8 8.64 -8 11.28 -8 14 C-7.01 14 -6.02 14 -5 14 C-5 11.36 -5 8.72 -5 6 C-4.34 6 -3.68 6 -3 6 C-3 5.34 -3 4.68 -3 4 C-3.66 4 -4.32 4 -5 4 C-4.67 3.01 -4.34 2.02 -4 1 C-2 0 -2 0 0 0 Z " fill="#CCB8B4" transform="translate(102,106)"/>
<path d="M0 0 C0.33 0 0.66 0 1 0 C1.00257812 0.74765625 1.00515625 1.4953125 1.0078125 2.265625 C1.10139895 8.6896405 1.10139895 8.6896405 4.8125 13.625 C9.53251331 15.66108417 13.61406631 16.20298464 18.75 16.5625 C19.92046875 16.64628906 21.0909375 16.73007813 22.296875 16.81640625 C23.63492188 16.90728516 23.63492188 16.90728516 25 17 C25 17.33 25 17.66 25 18 C22.03 18 19.06 18 16 18 C16 18.66 16 19.32 16 20 C10.06 19.67 4.12 19.34 -2 19 C-2 18.01 -2 17.02 -2 16 C-3.65 16.33 -5.3 16.66 -7 17 C-7.33 15.02 -7.66 13.04 -8 11 C-5.36 10.67 -2.72 10.34 0 10 C0 6.7 0 3.4 0 0 Z " fill="#C2B2A5" transform="translate(124,130)"/>
<path d="M0 0 C1.5 1.3125 1.5 1.3125 3 3 C3 3.99 3 4.98 3 6 C7.62 6.99 12.24 7.98 17 9 C17 14.28 17 19.56 17 25 C16.67 25 16.34 25 16 25 C16 20.38 16 15.76 16 11 C13.78645833 10.77213542 11.57291667 10.54427083 9.359375 10.31640625 C7.17635361 10.02365007 5.1226818 9.57935581 3 9 C3.33 9.99 3.66 10.98 4 12 C4.06802967 13.72795352 4.08495645 15.45835365 4.0625 17.1875 C4.05347656 18.08855469 4.04445313 18.98960938 4.03515625 19.91796875 C4.02355469 20.60503906 4.01195313 21.29210937 4 22 C4.70125 22.12375 5.4025 22.2475 6.125 22.375 C9.17656387 23.03838345 12.05340938 23.97211955 15 25 C15 25.33 15 25.66 15 26 C7.57142857 26.28571429 7.57142857 26.28571429 4 24 C3.67 24.99 3.34 25.98 3 27 C-0.37708048 18.21959075 -0.14142108 9.28665074 0 0 Z " fill="#2C120E" transform="translate(122,97)"/>
<path d="M0 0 C0.82638376 2.89234315 1 4.88742431 1 8 C0.34 8 -0.32 8 -1 8 C-1 8.66 -1 9.32 -1 10 C-1.886875 9.649375 -2.77375 9.29875 -3.6875 8.9375 C-7.09454787 7.97324117 -8.68899149 7.8963305 -12 9 C-12.66 9.66 -13.32 10.32 -14 11 C-14.99 11 -15.98 11 -17 11 C-17 10.34 -17 9.68 -17 9 C-17.99 9 -18.98 9 -20 9 C-20 8.34 -20 7.68 -20 7 C-20.99 6.67 -21.98 6.34 -23 6 C-17.28703365 2.19135577 -9.5454832 4.1818146 -3 5 C-6.63 4.01 -10.26 3.02 -14 2 C-14 1.67 -14 1.34 -14 1 C-9.27616037 0.34843591 -4.78025483 -0.11950637 0 0 Z " fill="#B49C8B" transform="translate(172,98)"/>
<path d="M0 0 C0 0.66 0 1.32 0 2 C-1.32 2.33 -2.64 2.66 -4 3 C-4 4.32 -4 5.64 -4 7 C-2.68 7.33 -1.36 7.66 0 8 C0 8.66 0 9.32 0 10 C-0.66 10 -1.32 10 -2 10 C-2 10.66 -2 11.32 -2 12 C-1.05125 11.79375 -0.1025 11.5875 0.875 11.375 C1.90625 11.25125 2.9375 11.1275 4 11 C6 13 6 13 6.1953125 15.3828125 C6.16050781 16.74019531 6.16050781 16.74019531 6.125 18.125 C6.09792969 19.49011719 6.09792969 19.49011719 6.0703125 20.8828125 C6.03550781 21.93082031 6.03550781 21.93082031 6 23 C5.01 23 4.02 23 3 23 C3 20.03 3 17.06 3 14 C1.68 14 0.36 14 -1 14 C-1 16.97 -1 19.94 -1 23 C-1.99 23 -2.98 23 -4 23 C-4 18.71 -4 14.42 -4 10 C-5.32 9.34 -6.64 8.68 -8 8 C-8.36075949 3.55063291 -8.36075949 3.55063291 -6.8125 1.1875 C-4.44017475 -0.36678206 -2.77958655 -0.22537188 0 0 Z " fill="#22130F" transform="translate(75,110)"/>
<path d="M0 0 C5.28 0 10.56 0 16 0 C16 0.33 16 0.66 16 1 C14.35 1.33 12.7 1.66 11 2 C12.65 2.33 14.3 2.66 16 3 C16 4.32 16 5.64 16 7 C13.36 7 10.72 7 8 7 C8.33 7.99 8.66 8.98 9 10 C6.69 10.33 4.38 10.66 2 11 C2 11.66 2 12.32 2 13 C1.34 13 0.68 13 0 13 C-0.125 10.625 -0.125 10.625 0 8 C0.66 7.34 1.32 6.68 2 6 C1.34 5.01 0.68 4.02 0 3 C0 2.01 0 1.02 0 0 Z " fill="#D0C3BA" transform="translate(184,121)"/>
<path d="M0 0 C1.5625 1.75 1.5625 1.75 3 4 C2.6875 6.25 2.6875 6.25 2 8 C3.98567708 7.96744792 5.97135417 7.93489583 7.95703125 7.90234375 C10 8 10 8 13 9 C13 9.66 13 10.32 13 11 C5.10205548 13.37129569 -3.65424567 12.5880215 -11.390625 10.046875 C-13 9 -13 9 -14 5 C-9.38 5.99 -4.76 6.98 0 8 C0 5.36 0 2.72 0 0 Z " fill="#C0A596" transform="translate(140,116)"/>
<path d="M0 0 C0.66 0.28875 1.32 0.5775 2 0.875 C10.90629334 4.21486 19.59714365 4.56637313 29 5 C29 5.33 29 5.66 29 6 C26.36 6.33 23.72 6.66 21 7 C21 7.66 21 8.32 21 9 C22.65 9 24.3 9 26 9 C25.67 9.66 25.34 10.32 25 11 C22.66705225 11.04241723 20.33297433 11.04092937 18 11 C17.67 10.67 17.34 10.34 17 10 C14.26368199 9.46178208 11.5157942 9.03521964 8.76171875 8.59765625 C6.14263392 8.03086703 4.23598298 7.46530404 2 6 C0.75 2.875 0.75 2.875 0 0 Z " fill="#C2AA9C" transform="translate(123,97)"/>
<path d="M0 0 C1.17949219 0.47566406 1.17949219 0.47566406 2.3828125 0.9609375 C6.91556757 2.26300321 11.18278778 2.45540197 15.875 2.625 C16.75414062 2.66367188 17.63328125 2.70234375 18.5390625 2.7421875 C20.69238793 2.83581034 22.84616414 2.91896459 25 3 C24.01 3.66 23.02 4.32 22 5 C22.33 5.66 22.66 6.32 23 7 C18.39306233 9.30346883 11.65288552 8.5779013 6.72265625 7.50390625 C3.55114013 6.31710212 2.16741782 5.31299853 0.5625 2.3125 C0.376875 1.549375 0.19125 0.78625 0 0 Z " fill="#A78F82" transform="translate(127,127)"/>
<path d="M0 0 C0.99 0 1.98 0 3 0 C2.34 1.65 1.68 3.3 1 5 C1.99 5 2.98 5 4 5 C4.33 3.68 4.66 2.36 5 1 C6.65 0.67 8.3 0.34 10 0 C10 2 10 2 8.5 3.625 C8.005 4.07875 7.51 4.5325 7 5 C7.66 5 8.32 5 9 5 C9 5.66 9 6.32 9 7 C8.34 7 7.68 7 7 7 C7 9.64 7 12.28 7 15 C6.01 15 5.02 15 4 15 C4 12.36 4 9.72 4 7 C3.01 7.33 2.02 7.66 1 8 C0.67 9.98 0.34 11.96 0 14 C-0.66 14 -1.32 14 -2 14 C-3.43481543 6.0652978 -3.43481543 6.0652978 -1.75 1.9375 C-1.1725 1.298125 -0.595 0.65875 0 0 Z " fill="#281110" transform="translate(90,105)"/>
<path d="M0 0 C1.64574566 -0.02688151 3.29161413 -0.04634123 4.9375 -0.0625 C5.85402344 -0.07410156 6.77054687 -0.08570312 7.71484375 -0.09765625 C10 0 10 0 11 1 C11.07179964 2.51928038 11.08392007 4.04167482 11.0625 5.5625 C11.05347656 6.38878906 11.04445313 7.21507813 11.03515625 8.06640625 C11.02355469 8.70449219 11.01195313 9.34257813 11 10 C10.01 10.33 9.02 10.66 8 11 C8 10.34 8 9.68 8 9 C8.66 9 9.32 9 10 9 C10 6.69 10 4.38 10 2 C9.34 2 8.68 2 8 2 C8.020625 2.845625 8.04125 3.69125 8.0625 4.5625 C7.99783768 8.11892777 7.5614504 11.49093503 7 15 C7.99 15 8.98 15 10 15 C10 16.98 10 18.96 10 21 C7.69 21 5.38 21 3 21 C3 20.01 3 19.02 3 18 C3.99 17.34 4.98 16.68 6 16 C5.34 15.34 4.68 14.68 4 14 C4 12.68 4 11.36 4 10 C2.5833253 8.2488427 2.5833253 8.2488427 1 7 C1.99 6.67 2.98 6.34 4 6 C4.33 4.35 4.66 2.7 5 1 C3.35 1 1.7 1 0 1 C0 0.67 0 0.34 0 0 Z " fill="#D3C5BC" transform="translate(113,117)"/>
<path d="M0 0 C1.32 0.33 2.64 0.66 4 1 C4.33 2.32 4.66 3.64 5 5 C5.99 3.35 6.98 1.7 8 0 C8.99 0.66 9.98 1.32 11 2 C11 2.99 11 3.98 11 5 C11.66 5 12.32 5 13 5 C13.33 4.34 13.66 3.68 14 3 C14.79953138 6.28696233 15.09658936 7.71023192 14 11 C12.125 10.6875 12.125 10.6875 10 10 C9.34 9.01 8.68 8.02 8 7 C7.34 8.65 6.68 10.3 6 12 C5.01 11.67 4.02 11.34 3 11 C2.05078125 8.75 2.05078125 8.75 1.3125 6 C1.06113281 5.0925 0.80976562 4.185 0.55078125 3.25 C0 1 0 1 0 0 Z " fill="#2B1A17" transform="translate(93,121)"/>
<path d="M0 0 C-0.33 1.32 -0.66 2.64 -1 4 C-6.77262497 4.82936231 -12.35938525 5.15431156 -18.1875 5.125 C-18.96802734 5.12886719 -19.74855469 5.13273437 -20.55273438 5.13671875 C-24.50173908 5.13001984 -28.1448216 4.97345186 -32 4 C-32 3.01 -32 2.02 -32 1 C-31.16227051 1.00523682 -30.32454102 1.01047363 -29.46142578 1.01586914 C-26.35661064 1.03290014 -23.25181929 1.04544482 -20.14697266 1.05493164 C-18.14093449 1.06244036 -16.13491798 1.0751447 -14.12890625 1.08789062 C-12.87207031 1.09111328 -11.61523438 1.09433594 -10.3203125 1.09765625 C-9.15773926 1.10289307 -7.99516602 1.10812988 -6.79736328 1.11352539 C-4.16197855 1.00657358 -2.5478003 0 0 0 Z " fill="#BFA99E" transform="translate(160,94)"/>
<path d="M0 0 C1.46507646 2.93015292 1.0213589 5.67768231 0.9375 8.90625 C0.85499134 11.06025522 0.85499134 11.06025522 2 13 C2.09608608 14.83128771 2.12982579 16.66619959 2.125 18.5 C2.12757813 19.4796875 2.13015625 20.459375 2.1328125 21.46875 C2 24 2 24 1 26 C0.34 26 -0.32 26 -1 26 C-0.67 22.04 -0.34 18.08 0 14 C-0.66 14 -1.32 14 -2 14 C-2 12.68 -2 11.36 -2 10 C-3.65 10 -5.3 10 -7 10 C-7 8.68 -7 7.36 -7 6 C-6.34 6 -5.68 6 -5 6 C-5 4.68 -5 3.36 -5 2 C-3.35 1.34 -1.7 0.68 0 0 Z " fill="#CFC1B4" transform="translate(136,55)"/>
<path d="M0 0 C3 0.25 3 0.25 5 2.25 C5.25 5.25 5.25 5.25 5 8.25 C3 10.25 3 10.25 0 10.5 C-3 10.25 -3 10.25 -5 8.25 C-5.25 5.25 -5.25 5.25 -5 2.25 C-3 0.25 -3 0.25 0 0 Z " fill="#2E1D1A" transform="translate(81,109.75)"/>
<path d="M0 0 C1.98 0.66 3.96 1.32 6 2 C5.01 2.495 5.01 2.495 4 3 C4 3.66 4 4.32 4 5 C4.66 5 5.32 5 6 5 C5.67 5.99 5.34 6.98 5 8 C3.35 8 1.7 8 0 8 C0.33 7.01 0.66 6.02 1 5 C-0.32 5 -1.64 5 -3 5 C-2.67 6.32 -2.34 7.64 -2 9 C-2.99 8.67 -3.98 8.34 -5 8 C-4.01 9.32 -3.02 10.64 -2 12 C-3 14 -3 14 -4 15 C-4 15.33 -4 15.66 -4 16 C-5.65 16 -7.3 16 -9 16 C-8.34 15.01 -7.68 14.02 -7 13 C-7.66 12.67 -8.32 12.34 -9 12 C-9 11.34 -9 10.68 -9 10 C-8.34 10 -7.68 10 -7 10 C-6.690625 9.030625 -6.38125 8.06125 -6.0625 7.0625 C-5 4 -5 4 -4 3 C-2.33382885 2.95936168 -0.66611905 2.957279 1 3 C0.67 2.01 0.34 1.02 0 0 Z " fill="#D3C5B8" transform="translate(26,72)"/>
<path d="M0 0 C1.22589844 0.01353516 1.22589844 0.01353516 2.4765625 0.02734375 C3.41628906 0.04474609 3.41628906 0.04474609 4.375 0.0625 C5.035 1.3825 5.695 2.7025 6.375 4.0625 C7.365 4.0625 8.355 4.0625 9.375 4.0625 C9.375 4.7225 9.375 5.3825 9.375 6.0625 C11.355 6.0625 13.335 6.0625 15.375 6.0625 C11.79868771 8.44670819 9.39189261 9.19392447 5.1875 9.125 C3.3003125 9.0940625 3.3003125 9.0940625 1.375 9.0625 C2.014375 8.753125 2.65375 8.44375 3.3125 8.125 C5.31110821 7.2279837 5.31110821 7.2279837 6.375 6.0625 C5.323125 6.248125 4.27125 6.43375 3.1875 6.625 C-0.19619882 7.01329331 -2.38925888 6.94497485 -5.625 6.0625 C-5.295 5.4025 -4.965 4.7425 -4.625 4.0625 C-2.315 4.0625 -0.005 4.0625 2.375 4.0625 C-0.59911124 2.82328698 -3.47762818 1.76191596 -6.625 1.0625 C-4.21954362 -0.14022819 -2.67503047 -0.03821472 0 0 Z " fill="#AE9684" transform="translate(145.625,102.9375)"/>
<path d="M0 0 C0.25 3.25 0.25 3.25 0 7 C-2 9.3125 -2 9.3125 -4 11 C-4 11.66 -4 12.32 -4 13 C-6.97 12.505 -6.97 12.505 -10 12 C-8.29374499 9.21611025 -7.52373261 8.14615794 -4.3125 7.25 C-3.549375 7.1675 -2.78625 7.085 -2 7 C-2 6.34 -2 5.68 -2 5 C-6.29 4.34 -10.58 3.68 -15 3 C-15 2.34 -15 1.68 -15 1 C-13.25215171 0.63536268 -11.50159498 0.2836922 -9.75 -0.0625 C-8.28820312 -0.35833984 -8.28820312 -0.35833984 -6.796875 -0.66015625 C-4.131881 -0.98397535 -2.51128277 -0.85503199 0 0 Z " fill="#AC9585" transform="translate(157,121)"/>
<path d="M0 0 C0.33 0 0.66 0 1 0 C1 5.94 1 11.88 1 18 C-1.31 18 -3.62 18 -6 18 C-5.67 17.01 -5.34 16.02 -5 15 C-4.01 15 -3.02 15 -2 15 C-2 13.02 -2 11.04 -2 9 C-2.61875 8.87625 -3.2375 8.7525 -3.875 8.625 C-6 8 -6 8 -8 6 C-9.31747324 5.30251417 -10.64914193 4.63040043 -12 4 C-9.36 4 -6.72 4 -4 4 C-4 3.34 -4 2.68 -4 2 C-3.01 2 -2.02 2 -1 2 C-0.67 1.34 -0.34 0.68 0 0 Z " fill="#5A3A35" transform="translate(139,106)"/>
<path d="M0 0 C0.66 0.33 1.32 0.66 2 1 C1.57847656 1.66386719 1.15695313 2.32773438 0.72265625 3.01171875 C0.17480469 3.89472656 -0.37304688 4.77773437 -0.9375 5.6875 C-1.48277344 6.55761719 -2.02804688 7.42773438 -2.58984375 8.32421875 C-5.33455124 13.53232022 -5.26744662 19.04202988 -5.5625 24.8125 C-5.60568359 25.60076172 -5.64886719 26.38902344 -5.69335938 27.20117188 C-5.79878321 29.13394215 -5.89983094 31.06695026 -6 33 C-6.99 33.495 -6.99 33.495 -8 34 C-8.69856676 10.24873004 -8.69856676 10.24873004 -2.3125 2.375 C-1.1678125 1.199375 -1.1678125 1.199375 0 0 Z " fill="#160905" transform="translate(168,106)"/>
<path d="M0 0 C2.0625 2.125 2.0625 2.125 4 5 C3.75 8.3125 3.75 8.3125 3 11 C3.66 11.33 4.32 11.66 5 12 C2.69 12.33 0.38 12.66 -2 13 C-2 13.33 -2 13.66 -2 14 C-3.65 14 -5.3 14 -7 14 C-7.33 13.01 -7.66 12.02 -8 11 C-7.34 11 -6.68 11 -6 11 C-6 9.68 -6 8.36 -6 7 C-5.34 7 -4.68 7 -4 7 C-3.67 6.34 -3.34 5.68 -3 5 C-2.67 5.66 -2.34 6.32 -2 7 C-2.33 7.99 -2.66 8.98 -3 10 C-2.34 10 -1.68 10 -1 10 C-0.67 6.7 -0.34 3.4 0 0 Z " fill="#D3C7BB" transform="translate(138,71)"/>
<path d="M0 0 C0.66 0 1.32 0 2 0 C5.44419134 13.6332574 5.44419134 13.6332574 5 20 C3.68 19.67 2.36 19.34 1 19 C-1.4008222 7.14594039 -1.4008222 7.14594039 -1 1 C-0.67 0.67 -0.34 0.34 0 0 Z " fill="#D4C2B4" transform="translate(143,58)"/>
<path d="M0 0 C0.66 0 1.32 0 2 0 C2 3.3 2 6.6 2 10 C3.32 10.33 4.64 10.66 6 11 C4.02 11 2.04 11 0 11 C0 9.35 0 7.7 0 6 C-0.5662207 6.32597168 -1.13244141 6.65194336 -1.71582031 6.98779297 C-4.21950977 8.09727314 -5.82657918 8.23207325 -8.546875 8.1953125 C-9.81337891 8.18564453 -9.81337891 8.18564453 -11.10546875 8.17578125 C-11.97816406 8.15902344 -12.85085937 8.14226562 -13.75 8.125 C-15.08224609 8.11146484 -15.08224609 8.11146484 -16.44140625 8.09765625 C-18.62788058 8.07414577 -20.81380094 8.04128499 -23 8 C-23 7.67 -23 7.34 -23 7 C-17.555 6.505 -17.555 6.505 -12 6 C-12 5.67 -12 5.34 -12 5 C-7.71 4.34 -3.42 3.68 1 3 C0.67 2.01 0.34 1.02 0 0 Z " fill="#1D0905" transform="translate(160,88)"/>
<path d="M0 0 C0.33 0 0.66 0 1 0 C1 4.62 1 9.24 1 14 C-2 15 -2 15 -5.1875 13.5625 C-6.115625 13.046875 -7.04375 12.53125 -8 12 C-6.625 10.5 -6.625 10.5 -5 9 C-4.34 9 -3.68 9 -3 9 C-3 8.34 -3 7.68 -3 7 C-4.32 6.67 -5.64 6.34 -7 6 C-5.02 5.67 -3.04 5.34 -1 5 C-0.67 3.35 -0.34 1.7 0 0 Z " fill="#C3A999" transform="translate(158,126)"/>
<path d="M0 0 C0.82638376 2.89234315 1 4.88742431 1 8 C0.34 8 -0.32 8 -1 8 C-1 8.66 -1 9.32 -1 10 C-3.50357192 8.74821404 -5.06433379 7.00018842 -7 5 C-5.68 5 -4.36 5 -3 5 C-6.63 4.01 -10.26 3.02 -14 2 C-14 1.67 -14 1.34 -14 1 C-9.27616037 0.34843591 -4.78025483 -0.11950637 0 0 Z " fill="#6C574C" transform="translate(172,98)"/>
<path d="M0 0 C0 0.66 0 1.32 0 2 C0.78375 1.649375 1.5675 1.29875 2.375 0.9375 C3.24125 0.628125 4.1075 0.31875 5 0 C5.66 0.33 6.32 0.66 7 1 C6 4 6 4 4.25 5.25 C0.6920913 6.43596957 -1.84866703 5.4477406 -5.25 4.125 C-7 3 -7 3 -8 0 C-5.13822943 -1.43088528 -3.06624227 -0.59991697 0 0 Z " fill="#B9A090" transform="translate(137,139)"/>
<path d="M0 0 C0.99 0.99 1.98 1.98 3 3 C3.66 3 4.32 3 5 3 C5.33 2.01 5.66 1.02 6 0 C6 0.99 6 1.98 6 3 C6.66 3.33 7.32 3.66 8 4 C7.67 5.32 7.34 6.64 7 8 C5.35 8 3.7 8 2 8 C2 8.66 2 9.32 2 10 C2.66 10 3.32 10 4 10 C4 10.66 4 11.32 4 12 C2.68 12 1.36 12 0 12 C0 8.04 0 4.08 0 0 Z " fill="#D0C4BA" transform="translate(162,122)"/>
<path d="M0 0 C6.27 0 12.54 0 19 0 C19 0.99 19 1.98 19 3 C16.58325776 3.02705308 14.1668206 3.04686438 11.75 3.0625 C10.72712891 3.07506836 10.72712891 3.07506836 9.68359375 3.08789062 C6.30657446 3.10428392 3.22708361 3.05628768 0 2 C0 1.34 0 0.68 0 0 Z " fill="#1F0B05" transform="translate(132,99)"/>
<path d="M0 0 C1.11375 0.2475 1.11375 0.2475 2.25 0.5 C9.83220972 1.5109613 17.47489639 1.36820066 25 0 C25 0.66 25 1.32 25 2 C20.5029301 3.7301704 16.74785648 4.27093735 11.9375 4.25 C10.75027344 4.25515625 9.56304687 4.2603125 8.33984375 4.265625 C5.12511887 4.00995097 2.8912914 3.37732596 0 2 C0 1.34 0 0.68 0 0 Z " fill="#2B130A" transform="translate(130,133)"/>
<path d="M0 0 C2.4375 0.8125 2.4375 0.8125 5 2 C6.28317892 5.84953676 6.06643637 8.94738135 6 13 C2.37 13 -1.26 13 -5 13 C-5 12.67 -5 12.34 -5 12 C-2.69 12 -0.38 12 2 12 C2.33 9.69 2.66 7.38 3 5 C2.01 4.67 1.02 4.34 0 4 C0 2.68 0 1.36 0 0 Z " fill="#DFD1C9" transform="translate(117,104)"/>
<path d="M0 0 C2.475 0.99 2.475 0.99 5 2 C5 4 5 4 3.5 5.625 C3.005 6.07875 2.51 6.5325 2 7 C3.65 7.33 5.3 7.66 7 8 C7 8.66 7 9.32 7 10 C3.625 10.1875 3.625 10.1875 0 10 C-2 7 -2 7 -1.6875 3.875 C-1 1 -1 1 0 0 Z " fill="#3D2B28" transform="translate(101,110)"/>
<path d="M0 0 C4.95 0.99 4.95 0.99 10 2 C10.33 2.99 10.66 3.98 11 5 C9.68 5.33 8.36 5.66 7 6 C7.33 6.66 7.66 7.32 8 8 C4.25 9.125 4.25 9.125 2 8 C1.10199905 5.37805894 0.60232897 2.71048036 0 0 Z " fill="#876060" transform="translate(124,105)"/>
<path d="M0 0 C0.66 0 1.32 0 2 0 C1.979375 1.134375 1.95875 2.26875 1.9375 3.4375 C1.58422523 6.81575674 1.58422523 6.81575674 3 8 C3.07258946 10.18639453 3.08373783 12.37500389 3.0625 14.5625 C3.05347656 15.76003906 3.04445313 16.95757812 3.03515625 18.19140625 C3.02355469 19.11824219 3.01195313 20.04507813 3 21 C2.67 21 2.34 21 2 21 C2 18.36 2 15.72 2 13 C1.01 13 0.02 13 -1 13 C-2.51403812 8.15507803 -1.36602172 4.7408989 0 0 Z " fill="#DDD1C7" transform="translate(121,119)"/>
<path d="M0 0 C7.92 0.33 15.84 0.66 24 1 C24 1.33 24 1.66 24 2 C23.21496094 2.06058594 22.42992187 2.12117188 21.62109375 2.18359375 C17.06941915 2.54661074 12.57441339 2.90882327 8.0625 3.625 C5.05200444 3.99363211 2.90761052 3.79298469 0 3 C0 2.01 0 1.02 0 0 Z " fill="#9B887A" transform="translate(128,95)"/>
<path d="M0 0 C0.33 0.99 0.66 1.98 1 3 C0.34 3 -0.32 3 -1 3 C-1.33 3.99 -1.66 4.98 -2 6 C-2.99 6.33 -3.98 6.66 -5 7 C-5 6.34 -5 5.68 -5 5 C-6.32 4.67 -7.64 4.34 -9 4 C-9 3.34 -9 2.68 -9 2 C-10.32 1.67 -11.64 1.34 -13 1 C-11.20994059 0.63779734 -9.41787943 0.28547531 -7.625 -0.0625 C-6.12839844 -0.35833984 -6.12839844 -0.35833984 -4.6015625 -0.66015625 C-2 -1 -2 -1 0 0 Z " fill="#B9A190" transform="translate(160,111)"/>
<path d="M0 0 C1.32 0 2.64 0 4 0 C4 2.97 4 5.94 4 9 C4.99 9.33 5.98 9.66 7 10 C4.03 10 1.06 10 -2 10 C-1.34 9.67 -0.68 9.34 0 9 C0 6.03 0 3.06 0 0 Z " fill="#EADBD3" transform="translate(74,124)"/>
<path d="M0 0 C0.66 0.28875 1.32 0.5775 2 0.875 C5.62499465 2.23437299 9.23346693 3.10624639 13 4 C12.01 4.33 11.02 4.66 10 5 C10 5.99 10 6.98 10 8 C4.25 7.125 4.25 7.125 2 6 C1.27306096 4.02111039 0.60183749 2.02045442 0 0 Z " fill="#BD9F98" transform="translate(123,97)"/>
<path d="M0 0 C0.886875 0.165 1.77375 0.33 2.6875 0.5 C7.48783313 1.22941407 12.27256278 0.93341031 17.109375 0.7421875 C20 1 20 1 21.890625 2.5078125 C22.25671875 3.00023438 22.6228125 3.49265625 23 4 C20.4784979 4.08172936 17.95970083 4.14083373 15.4375 4.1875 C14.73302734 4.21263672 14.02855469 4.23777344 13.30273438 4.26367188 C8.11996685 4.33532304 4.63735818 3.32172598 0 1 C0 0.67 0 0.34 0 0 Z " fill="#7A5E53" transform="translate(129,91)"/>
<path d="M0 0 C1.890625 0.18359375 1.890625 0.18359375 4 1 C5.046875 3.28515625 5.046875 3.28515625 5.75 6.0625 C5.99234375 6.98160156 6.2346875 7.90070313 6.484375 8.84765625 C6.65453125 9.55792969 6.8246875 10.26820313 7 11 C5.68 11 4.36 11 3 11 C2.49833923 9.35467212 1.99871553 7.70872301 1.5 6.0625 C1.08234375 4.68771484 1.08234375 4.68771484 0.65625 3.28515625 C0 1 0 1 0 0 Z " fill="#362420" transform="translate(93,121)"/>
<path d="M0 0 C1.64574566 -0.02688151 3.29161413 -0.04634123 4.9375 -0.0625 C5.85402344 -0.07410156 6.77054687 -0.08570312 7.71484375 -0.09765625 C10 0 10 0 11 1 C11.07179964 2.51928038 11.08392007 4.04167482 11.0625 5.5625 C11.05347656 6.38878906 11.04445313 7.21507813 11.03515625 8.06640625 C11.02355469 8.70449219 11.01195313 9.34257813 11 10 C10.01 10.33 9.02 10.66 8 11 C8 10.34 8 9.68 8 9 C8.66 9 9.32 9 10 9 C10 6.69 10 4.38 10 2 C9.34 2 8.68 2 8 2 C8 3.98 8 5.96 8 8 C7.71125 7.360625 7.4225 6.72125 7.125 6.0625 C6.17176549 3.84793921 6.17176549 3.84793921 4 3 C4.33 2.34 4.66 1.68 5 1 C3.35 1 1.7 1 0 1 C0 0.67 0 0.34 0 0 Z " fill="#C7BBB2" transform="translate(113,117)"/>
<path d="M0 0 C0.99 0 1.98 0 3 0 C2.01 4.62 1.02 9.24 0 14 C-0.66 14 -1.32 14 -2 14 C-3.43481543 6.0652978 -3.43481543 6.0652978 -1.75 1.9375 C-1.1725 1.298125 -0.595 0.65875 0 0 Z " fill="#200C0A" transform="translate(90,105)"/>
<path d="M0 0 C0.99 0.99 1.98 1.98 3 3 C2.67 3.66 2.34 4.32 2 5 C1.34 4.67 0.68 4.34 0 4 C0.99 5.32 1.98 6.64 3 8 C2 10 2 10 1 11 C1 11.33 1 11.66 1 12 C-0.65 12 -2.3 12 -4 12 C-3.34 11.01 -2.68 10.02 -2 9 C-2.66 8.67 -3.32 8.34 -4 8 C-4 7.34 -4 6.68 -4 6 C-3.34 6 -2.68 6 -2 6 C-1.34 4.02 -0.68 2.04 0 0 Z " fill="#C8BAAD" transform="translate(21,76)"/>
<path d="M0 0 C1.32 0.66 2.64 1.32 4 2 C3.67 3.65 3.34 5.3 3 7 C2.01 7.33 1.02 7.66 0 8 C-0.99 7.34 -1.98 6.68 -3 6 C-1.125 1.125 -1.125 1.125 0 0 Z " fill="#DFD1C7" transform="translate(164,137)"/>
<path d="M0 0 C0.33 0 0.66 0 1 0 C1.19476139 2.60380996 1.38108614 5.20775533 1.5625 7.8125 C1.61857422 8.55048828 1.67464844 9.28847656 1.73242188 10.04882812 C1.95769724 13.36788516 2.06255812 15.81232564 1 19 C-2 21 -2 21 -5 21 C-5 20.01 -5 19.02 -5 18 C-4.35546875 17.60167969 -3.7109375 17.20335937 -3.046875 16.79296875 C-0.62165504 15.04888795 -0.62165504 15.04888795 -0.390625 11.42578125 C-0.32442709 10.0554845 -0.2781749 8.68410545 -0.25 7.3125 C-0.22035156 6.61060547 -0.19070312 5.90871094 -0.16015625 5.18554688 C-0.08962967 3.45764576 -0.04252932 1.7288168 0 0 Z " fill="#7C6456" transform="translate(159,125)"/>
<path d="M0 0 C4.29 0.99 8.58 1.98 13 3 C12.67 3.99 12.34 4.98 12 6 C10.56138706 5.91253716 9.12402492 5.80434652 7.6875 5.6875 C6.88699219 5.62949219 6.08648437 5.57148437 5.26171875 5.51171875 C2.60933741 4.91161175 1.63496121 4.14291033 0 2 C0 1.34 0 0.68 0 0 Z " fill="#C8AD9F" transform="translate(126,121)"/>
<path d="M0 0 C0.66 0.99 1.32 1.98 2 3 C1.67 3.66 1.34 4.32 1 5 C2.32 5.33 3.64 5.66 5 6 C2.77109005 7.11445498 1.46944894 7.16480286 -1 7.1875 C-2.051875 7.20876953 -2.051875 7.20876953 -3.125 7.23046875 C-5 7 -5 7 -7 5 C-4.69 3.35 -2.38 1.7 0 0 Z " fill="#D0C2B9" transform="translate(199,79)"/>
<path d="M0 0 C0.33 0 0.66 0 1 0 C1.07347656 1.15628906 1.07347656 1.15628906 1.1484375 2.3359375 C1.22320312 3.33882812 1.29796875 4.34171875 1.375 5.375 C1.44460937 6.37273437 1.51421875 7.37046875 1.5859375 8.3984375 C1.76363964 11.15508879 1.76363964 11.15508879 4 13 C2.35 13.66 0.7 14.32 -1 15 C-1 14.34 -1 13.68 -1 13 C-3.31 12.67 -5.62 12.34 -8 12 C-8 11.67 -8 11.34 -8 11 C-5.36 10.67 -2.72 10.34 0 10 C0 6.7 0 3.4 0 0 Z " fill="#AC9B90" transform="translate(124,130)"/>
<path d="M0 0 C2.7385669 1.0041412 3.81209575 1.66177234 5.25 4.25 C6.07592799 7.27840261 6.14534994 9.8749763 6 13 C5.01 12.67 4.02 12.34 3 12 C2.05078125 10.0390625 2.05078125 10.0390625 1.3125 7.625 C1.06113281 6.83351563 0.80976563 6.04203125 0.55078125 5.2265625 C0 3 0 3 0 0 Z " fill="#E0D0C0" transform="translate(136,63)"/>
<path d="M0 0 C-0.99 0.66 -1.98 1.32 -3 2 C-2.67 2.66 -2.34 3.32 -2 4 C-6.29 4 -10.58 4 -15 4 C-14.67 3.01 -14.34 2.02 -14 1 C-4.58997722 -0.14806378 -4.58997722 -0.14806378 0 0 Z " fill="#C7AFA2" transform="translate(152,130)"/>
<path d="M0 0 C1.65 0.33 3.3 0.66 5 1 C4.125 5.875 4.125 5.875 3 7 C1.33382885 7.04063832 -0.33388095 7.042721 -2 7 C-2.33 6.01 -2.66 5.02 -3 4 C-1.35 4 0.3 4 2 4 C1.34 2.68 0.68 1.36 0 0 Z " fill="#251612" transform="translate(113,126)"/>
<path d="M0 0 C0.66 0 1.32 0 2 0 C2 0.66 2 1.32 2 2 C3.051875 2.185625 3.051875 2.185625 4.125 2.375 C7.17656387 3.03838345 10.05340938 3.97211955 13 5 C13 5.33 13 5.66 13 6 C5.57142857 6.28571429 5.57142857 6.28571429 2 4 C1.67 4.99 1.34 5.98 1 7 C0 6 0 6 -0.0625 2.9375 C-0.041875 1.968125 -0.02125 0.99875 0 0 Z " fill="#200806" transform="translate(124,117)"/>
<path d="M0 0 C0.99 0.33 1.98 0.66 3 1 C3 2.32 3 3.64 3 5 C0.69 5.33 -1.62 5.66 -4 6 C-4.33 4.35 -4.66 2.7 -5 1 C-3.35 1 -1.7 1 0 1 C0 0.67 0 0.34 0 0 Z " fill="#794D42" transform="translate(158,86)"/>
<path d="M0 0 C0.66 0 1.32 0 2 0 C2.33 3.63 2.66 7.26 3 11 C2.01 11 1.02 11 0 11 C-1.16461426 7.50615721 -1.13568319 4.66344611 -1 1 C-0.67 0.67 -0.34 0.34 0 0 Z " fill="#DBCBBC" transform="translate(143,58)"/>
<path d="M0 0 C1.65 0 3.3 0 5 0 C5 0.99 5 1.98 5 3 C5.99 3 6.98 3 8 3 C8 3.66 8 4.32 8 5 C4.7 5 1.4 5 -2 5 C-1.34 4.67 -0.68 4.34 0 4 C0 2.68 0 1.36 0 0 Z " fill="#D0C2B9" transform="translate(224,121)"/>
<path d="M0 0 C3 3 3 3 3.328125 5.62890625 C3.30234375 6.59699219 3.2765625 7.56507812 3.25 8.5625 C3.23453125 9.53316406 3.2190625 10.50382812 3.203125 11.50390625 C3 14 3 14 2 16 C1.34 16 0.68 16 0 16 C0 10.72 0 5.44 0 0 Z " fill="#9B8C7D" transform="translate(135,65)"/>
<path d="M0 0 C2.93943342 3.27920663 3.46948168 5.70907144 3.75 10.0625 C3.82734375 11.10535156 3.9046875 12.14820312 3.984375 13.22265625 C4 16 4 16 3 19 C2.34 19 1.68 19 1 19 C1.01160156 18.29875 1.02320313 17.5975 1.03515625 16.875 C1.08971184 11.13886898 0.85618377 5.67221747 0 0 Z " fill="#9E8E7C" transform="translate(140,62)"/>
<path d="M0 0 C1.32 1.32 2.64 2.64 4 4 C3.01 5.485 3.01 5.485 2 7 C2.99 7.33 3.98 7.66 5 8 C3.1875 8.6875 3.1875 8.6875 1 9 C-0.75 7.5625 -0.75 7.5625 -2 6 C-2.33 6.66 -2.66 7.32 -3 8 C-2.45276317 4.62537285 -1.9451 2.91765 0 0 Z " fill="#BEB4AA" transform="translate(166,112)"/>
<path d="M0 0 C2 2 2 2 2 6 C-0.31 5.34 -2.62 4.68 -5 4 C-5 3.34 -5 2.68 -5 2 C-5.66 1.67 -6.32 1.34 -7 1 C-4.48718205 -0.25640898 -2.78302919 -0.20872719 0 0 Z " fill="#453633" transform="translate(117,110)"/>
<path d="M0 0 C3.63 0 7.26 0 11 0 C10.67 1.32 10.34 2.64 10 4 C6.53058454 3.54177532 3.32604951 3.10868317 0 2 C0 1.34 0 0.68 0 0 Z " fill="#D1C3B6" transform="translate(37,163)"/>
<path d="M0 0 C2.31 0 4.62 0 7 0 C7 0.66 7 1.32 7 2 C7.66 2 8.32 2 9 2 C8.67 2.99 8.34 3.98 8 5 C4.7 4.67 1.4 4.34 -2 4 C-0.68 3.34 0.64 2.68 2 2 C1.34 1.34 0.68 0.68 0 0 Z " fill="#E0D2C5" transform="translate(129,179)"/>
<path d="M0 0 C0.66 0.33 1.32 0.66 2 1 C2 4.3 2 7.6 2 11 C1.01 11 0.02 11 -1 11 C-1.0270043 9.54176788 -1.04639787 8.08339325 -1.0625 6.625 C-1.07410156 5.81289062 -1.08570312 5.00078125 -1.09765625 4.1640625 C-1 2 -1 2 0 0 Z " fill="#190B08" transform="translate(79,122)"/>
<path d="M0 0 C0.33 0.99 0.66 1.98 1 3 C-1.52475462 4.26237731 -3.31200466 4.09856404 -6.125 4.0625 C-7.03507813 4.05347656 -7.94515625 4.04445313 -8.8828125 4.03515625 C-9.58148438 4.02355469 -10.28015625 4.01195313 -11 4 C-11 3.34 -11 2.68 -11 2 C-5.555 1.01 -5.555 1.01 0 0 Z " fill="#321D16" transform="translate(153,120)"/>
<path d="M0 0 C0 0.99 0 1.98 0 3 C-3.9813783 4.3271261 -7.85045227 4.06915913 -12 4 C-12 3.34 -12 2.68 -12 2 C-10.56342755 1.66269158 -9.12569907 1.33030409 -7.6875 1 C-6.88699219 0.814375 -6.08648437 0.62875 -5.26171875 0.4375 C-3 0 -3 0 0 0 Z " fill="#2D1913" transform="translate(154,116)"/>
<path d="M0 0 C0.66 0 1.32 0 2 0 C2.33 1.65 2.66 3.3 3 5 C4.32 5 5.64 5 7 5 C7 4.34 7 3.68 7 3 C7.66 3 8.32 3 9 3 C8.67 4.32 8.34 5.64 8 7 C5.125 7.125 5.125 7.125 2 7 C0 5 0 5 -0.125 2.375 C-0.08375 1.59125 -0.0425 0.8075 0 0 Z " fill="#1F0F0D" transform="translate(76,113)"/>
<path d="M0 0 C1.65 0 3.3 0 5 0 C4.34 2.97 3.68 5.94 3 9 C2.67 7.68 2.34 6.36 2 5 C0.02 5.33 -1.96 5.66 -4 6 C-3.67 5.01 -3.34 4.02 -3 3 C-2.01 3.33 -1.02 3.66 0 4 C0 2.68 0 1.36 0 0 Z " fill="#9A8A7B" transform="translate(158,113)"/>
<path d="M0 0 C0 0.99 0 1.98 0 3 C-2.97 2.505 -2.97 2.505 -6 2 C-6 3.32 -6 4.64 -6 6 C-6.66 6 -7.32 6 -8 6 C-8 6.66 -8 7.32 -8 8 C-8.66 8 -9.32 8 -10 8 C-9.1875 4.5625 -9.1875 4.5625 -8 1 C-5.07175348 0.02391783 -3.04386724 -0.08226668 0 0 Z " fill="#8D6056" transform="translate(134,87)"/>
<path d="M0 0 C2.4375 0.8125 2.4375 0.8125 5 2 C5.33 2.99 5.66 3.98 6 5 C4.01432292 5.22786458 2.02864583 5.45572917 0.04296875 5.68359375 C-2.19396393 5.97170735 -2.19396393 5.97170735 -5 7 C-5 6.34 -5 5.68 -5 5 C-3.35 4.67 -1.7 4.34 0 4 C0 2.68 0 1.36 0 0 Z " fill="#E1D3C6" transform="translate(125,80)"/>
<path d="M0 0 C3 1 3 1 4 2 C4.66 2.33 5.32 2.66 6 3 C1.77050005 5.41685712 -1.12335991 6.34833144 -6 6 C-5 4 -5 4 -2 3 C-2 2.34 -2 1.68 -2 1 C-1.34 0.67 -0.68 0.34 0 0 Z " fill="#CEC0B3" transform="translate(50,1)"/>
<path d="M0 0 C-3 2 -3 2 -5.0625 2.6875 C-8.10359169 4.74759437 -8.23320765 7.54943443 -9 11 C-9.33 11 -9.66 11 -10 11 C-10.08096803 9.54257537 -10.13917774 8.08387193 -10.1875 6.625 C-10.22230469 5.81289062 -10.25710937 5.00078125 -10.29296875 4.1640625 C-10.19628906 3.44992188 -10.09960938 2.73578125 -10 2 C-6.3558226 -0.4294516 -4.28758728 -0.16179575 0 0 Z " fill="#CBB6AA" transform="translate(130,85)"/>
<path d="M0 0 C3.63 0 7.26 0 11 0 C11 0.99 11 1.98 11 3 C5.04296875 3.29296875 5.04296875 3.29296875 3 3 C2.01 2.01 1.02 1.02 0 0 Z " fill="#CFC5BB" transform="translate(149,0)"/>
<path d="M0 0 C1.38294718 0.01329757 2.76582404 0.03715018 4.1484375 0.0703125 C4.85484375 0.07933594 5.56125 0.08835938 6.2890625 0.09765625 C8.03399848 0.12123647 9.77876045 0.15710789 11.5234375 0.1953125 C11.5234375 0.5253125 11.5234375 0.8553125 11.5234375 1.1953125 C8.5534375 1.1953125 5.5834375 1.1953125 2.5234375 1.1953125 C2.5234375 1.8553125 2.5234375 2.5153125 2.5234375 3.1953125 C-0.1165625 2.8653125 -2.7565625 2.5353125 -5.4765625 2.1953125 C-3.4765625 0.1953125 -3.4765625 0.1953125 0 0 Z " fill="#A18F87" transform="translate(137.4765625,146.8046875)"/>
<path d="M0 0 C2.31 0.33 4.62 0.66 7 1 C5.09598862 2.90401138 3.66574314 3.93520439 0.953125 4.19921875 C-1.03233273 4.1886578 -3.0169914 4.09915043 -5 4 C-5.33 3.34 -5.66 2.68 -6 2 C-4.02 2 -2.04 2 0 2 C0 1.34 0 0.68 0 0 Z " fill="#B5A299" transform="translate(129,145)"/>
<path d="M0 0 C0.99 0.495 0.99 0.495 2 1 C3.70702735 1.06996014 5.41668003 1.08440154 7.125 1.0625 C8.03507812 1.05347656 8.94515625 1.04445312 9.8828125 1.03515625 C10.93082031 1.01775391 10.93082031 1.01775391 12 1 C12 1.99 12 2.98 12 4 C10.34385343 4.38218767 8.67542976 4.71395102 7 5 C6.67 4.67 6.34 4.34 6 4 C4.00041636 3.95919217 1.99954746 3.95745644 0 4 C0 2.68 0 1.36 0 0 Z " fill="#E0D3CA" transform="translate(107,131)"/>
<path d="M0 0 C3.96 0 7.92 0 12 0 C11.67 0.66 11.34 1.32 11 2 C8.93359375 2.6328125 8.93359375 2.6328125 6.4375 3.125 C5.19806641 3.37636719 5.19806641 3.37636719 3.93359375 3.6328125 C3.29550781 3.75398438 2.65742188 3.87515625 2 4 C2 3.34 2 2.68 2 2 C1.34 2 0.68 2 0 2 C0 1.34 0 0.68 0 0 Z " fill="#B7A08F" transform="translate(140,109)"/>
<path d="M0 0 C0 0.66 0 1.32 0 2 C-5.28 2 -10.56 2 -16 2 C-15.67 1.34 -15.34 0.68 -15 0 C-9.96306036 -1.2194696 -5.0405899 -1.16321305 0 0 Z " fill="#D1C3B6" transform="translate(92,174)"/>
<path d="M0 0 C0.99 0.66 1.98 1.32 3 2 C3 2.66 3 3.32 3 4 C4.32 4.33 5.64 4.66 7 5 C7 5.99 7 6.98 7 8 C3.06326356 6.68775452 0.77280706 5.08089673 -2 2 C-1.34 2 -0.68 2 0 2 C0 1.34 0 0.68 0 0 Z " fill="#4F3328" transform="translate(127,138)"/>
<path d="M0 0 C2.54576578 0.4208607 5.041909 0.89753748 7.5625 1.4375 C8.27341797 1.58509766 8.98433594 1.73269531 9.71679688 1.88476562 C11.47893858 2.25138571 13.23961321 2.62504397 15 3 C15 3.33 15 3.66 15 4 C13.08404032 4.08133791 11.16708068 4.13934367 9.25 4.1875 C7.64898437 4.23970703 7.64898437 4.23970703 6.015625 4.29296875 C2.69972145 3.97082786 1.40983327 3.22851086 -1 1 C-0.67 0.67 -0.34 0.34 0 0 Z " fill="#29140D" transform="translate(130,126)"/>
<path d="M0 0 C3.25 -0.3125 3.25 -0.3125 7 0 C9.4375 2.5 9.4375 2.5 11 5 C10.01 5.66 9.02 6.32 8 7 C8 6.34 8 5.68 8 5 C7.01 4.67 6.02 4.34 5 4 C5.33 3.34 5.66 2.68 6 2 C4.35 2 2.7 2 1 2 C0.67 1.34 0.34 0.68 0 0 Z " fill="#DCCBC7" transform="translate(102,116)"/>
<path d="M0 0 C0 1.65 0 3.3 0 5 C-2.875 4.75 -2.875 4.75 -6 4 C-7.375 1.9375 -7.375 1.9375 -8 0 C-5.13822943 -1.43088528 -3.06624227 -0.59991697 0 0 Z " fill="#433331" transform="translate(118,118)"/>
<path d="M0 0 C0.66 0.33 1.32 0.66 2 1 C-0.97 5.95 -0.97 5.95 -4 11 C-4.66 10.67 -5.32 10.34 -6 10 C-4.6302836 6.00499382 -2.74277578 3.19990508 0 0 Z " fill="#1F110B" transform="translate(168,106)"/>
<path d="M0 0 C0 0.99 0 1.98 0 3 C1.32 3.33 2.64 3.66 4 4 C3.195625 4.12375 2.39125 4.2475 1.5625 4.375 C0.2940625 4.684375 0.2940625 4.684375 -1 5 C-1.33 5.66 -1.66 6.32 -2 7 C-2.99 6.67 -3.98 6.34 -5 6 C-4.34 6 -3.68 6 -3 6 C-3 5.34 -3 4.68 -3 4 C-3.66 4 -4.32 4 -5 4 C-4.67 3.01 -4.34 2.02 -4 1 C-2 0 -2 0 0 0 Z " fill="#C0B1AA" transform="translate(102,106)"/>
<path d="M0 0 C2.0625 2.1875 2.0625 2.1875 4 5 C3.75 7.8125 3.75 7.8125 3 10 C1.68 10 0.36 10 -1 10 C-0.67 6.7 -0.34 3.4 0 0 Z " fill="#CEBEAE" transform="translate(138,71)"/>
<path d="M0 0 C0 0.66 0 1.32 0 2 C-1.98 2.99 -1.98 2.99 -4 4 C-3.34 4.66 -2.68 5.32 -2 6 C-3.98 6 -5.96 6 -8 6 C-8 4.68 -8 3.36 -8 2 C-5.09399739 0.74335022 -3.20395416 0 0 0 Z " fill="#CBBDB0" transform="translate(88,83)"/>
<path d="M0 0 C2.9375 0.75 2.9375 0.75 6 2 C6.875 4.125 6.875 4.125 7 6 C4.625 5.8125 4.625 5.8125 2 5 C0.6875 2.4375 0.6875 2.4375 0 0 Z " fill="#BCA298" transform="translate(127,127)"/>
<path d="M0 0 C2.35448165 2.55068845 2.98327924 3.71017358 3.1875 7.25 C3.125625 8.1575 3.06375 9.065 3 10 C2.01 10.33 1.02 10.66 0 11 C-0.99 10.34 -1.98 9.68 -3 9 C-2.34 8.67 -1.68 8.34 -1 8 C-0.53476937 6.10466658 -0.53476937 6.10466658 -0.375 3.9375 C-0.25125 2.638125 -0.1275 1.33875 0 0 Z " fill="#C9ADA2" transform="translate(140,116)"/>
<path d="M0 0 C0.99 0 1.98 0 3 0 C3 2.64 3 5.28 3 8 C2.01 8 1.02 8 0 8 C0 5.36 0 2.72 0 0 Z " fill="#E2CAC8" transform="translate(91,112)"/>
<path d="M0 0 C1.32 0 2.64 0 4 0 C4 1.98 4 3.96 4 6 C2.02 6 0.04 6 -2 6 C-2 5.34 -2 4.68 -2 4 C-1.34 4 -0.68 4 0 4 C0 3.34 0 2.68 0 2 C0.99 1.67 1.98 1.34 3 1 C2.01 0.67 1.02 0.34 0 0 Z " fill="#7E5B59" transform="translate(133,115)"/>
<path d="M0 0 C-0.33 0.66 -0.66 1.32 -1 2 C-2.258125 2.04125 -3.51625 2.0825 -4.8125 2.125 C-5.52019531 2.14820312 -6.22789062 2.17140625 -6.95703125 2.1953125 C-9 2 -9 2 -12 0 C-7.6835078 -0.76173392 -4.25566547 -1.16063604 0 0 Z " fill="#130401" transform="translate(152,100)"/>
<path d="M0 0 C1.60407328 -0.02708567 3.2082785 -0.04643483 4.8125 -0.0625 C5.70582031 -0.07410156 6.59914062 -0.08570312 7.51953125 -0.09765625 C10 0 10 0 13 1 C13 1.66 13 2.32 13 3 C11.39504433 2.88557539 9.79101881 2.75805306 8.1875 2.625 C7.29417969 2.55539063 6.40085938 2.48578125 5.48046875 2.4140625 C3 2 3 2 0 0 Z " fill="#AE9D92" transform="translate(158,99)"/>
<path d="M0 0 C0 0.99 0 1.98 0 3 C-3.3 3 -6.6 3 -10 3 C-10.33 2.34 -10.66 1.68 -11 1 C-3.375 0 -3.375 0 0 0 Z " fill="#DFD1C4" transform="translate(251,30)"/>
<path d="M0 0 C1.98 0 3.96 0 6 0 C6.33 0.66 6.66 1.32 7 2 C5.35 2 3.7 2 2 2 C2.33 2.99 2.66 3.98 3 5 C2.01 5 1.02 5 0 5 C-0.66 4.01 -1.32 3.02 -2 2 C-1.34 2 -0.68 2 0 2 C0 1.34 0 0.68 0 0 Z " fill="#CCBFB2" transform="translate(114,139)"/>
<path d="M0 0 C2.475 0.99 2.475 0.99 5 2 C5 2.99 5 3.98 5 5 C3.02 5 1.04 5 -1 5 C-1.33 4.34 -1.66 3.68 -2 3 C-1.34 2.01 -0.68 1.02 0 0 Z " fill="#665652" transform="translate(85,121)"/>
<path d="M0 0 C2 3 2 3 1.625 5.1875 C1.41875 5.785625 1.2125 6.38375 1 7 C-0.65 6.67 -2.3 6.34 -4 6 C-4.33 4.68 -4.66 3.36 -5 2 C-4.360625 1.855625 -3.72125 1.71125 -3.0625 1.5625 C-1.02454854 1.18992819 -1.02454854 1.18992819 0 0 Z " fill="#DECFC5" transform="translate(66,106)"/>
<path d="M0 0 C0.66 0 1.32 0 2 0 C2.33 0.66 2.66 1.32 3 2 C3.66 2 4.32 2 5 2 C5 2.66 5 3.32 5 4 C4.34 4 3.68 4 3 4 C3 4.66 3 5.32 3 6 C1.35 6 -0.3 6 -2 6 C-1.34 4.02 -0.68 2.04 0 0 Z " fill="#C9BBAE" transform="translate(19,101)"/>
<path d="M0 0 C0.7658028 2.77603517 1 5.10673188 1 8 C-2.85645121 8.22036864 -5.49223216 7.60355101 -9 6 C-9 5.67 -9 5.34 -9 5 C-6.36 5 -3.72 5 -1 5 C-0.67 3.35 -0.34 1.7 0 0 Z " fill="#433128" transform="translate(160,93)"/>
<path d="M0 0 C0 1.32 0 2.64 0 4 C-2.97 3.505 -2.97 3.505 -6 3 C-6.33 2.01 -6.66 1.02 -7 0 C-4.3333581 -1.33332095 -2.83319697 -0.67102033 0 0 Z " fill="#CAAC9D" transform="translate(136,139)"/>
<path d="M0 0 C0.99 0.33 1.98 0.66 3 1 C3 2.65 3 4.3 3 6 C1.68 6 0.36 6 -1 6 C-1.042721 4.33388095 -1.04063832 2.66617115 -1 1 C-0.67 0.67 -0.34 0.34 0 0 Z " fill="#D3C0BC" transform="translate(80,112)"/>
<path d="M0 0 C2.31 0.33 4.62 0.66 7 1 C3.25 4 3.25 4 1 4 C0.67 4.99 0.34 5.98 0 7 C-2 4 -2 4 -2 2 C-1.34 2 -0.68 2 0 2 C0 1.34 0 0.68 0 0 Z " fill="#D1C1B4" transform="translate(149,62)"/>
<path d="M0 0 C0.33 0 0.66 0 1 0 C1 3.63 1 7.26 1 11 C0.67 9.68 0.34 8.36 0 7 C-0.99 7.33 -1.98 7.66 -3 8 C-5.1875 7.0625 -5.1875 7.0625 -7 6 C-5.02 5.67 -3.04 5.34 -1 5 C-0.67 3.35 -0.34 1.7 0 0 Z " fill="#D5BFAF" transform="translate(158,126)"/>
<path d="M0 0 C1.32 0 2.64 0 4 0 C3.34 1.32 2.68 2.64 2 4 C2 3.34 2 2.68 2 2 C1.34 2 0.68 2 0 2 C0 1.34 0 0.68 0 0 Z M-2 4 C-0.68 4 0.64 4 2 4 C2 4.66 2 5.32 2 6 C0.68 6.33 -0.64 6.66 -2 7 C-2 6.01 -2 5.02 -2 4 Z " fill="#DDCFC6" transform="translate(164,130)"/>
<path d="M0 0 C2.64 0.33 5.28 0.66 8 1 C8 1.99 8 2.98 8 4 C5.36 3.67 2.72 3.34 0 3 C0 2.01 0 1.02 0 0 Z " fill="#CEC3B9" transform="translate(213,124)"/>
<path d="M0 0 C0.66 0 1.32 0 2 0 C2 0.66 2 1.32 2 2 C3.65 2.33 5.3 2.66 7 3 C7 3.33 7 3.66 7 4 C5.35 4 3.7 4 2 4 C2 4.66 2 5.32 2 6 C1.34 6 0.68 6 0 6 C0 4.02 0 2.04 0 0 Z " fill="#140503" transform="translate(110,112)"/>
<path d="M0 0 C-0.33 1.32 -0.66 2.64 -1 4 C-3.64 4 -6.28 4 -9 4 C-8 2 -8 2 -5.0625 0.875 C-2 0 -2 0 0 0 Z " fill="#B29C90" transform="translate(160,94)"/>
<path d="M0 0 C2.97 0.495 2.97 0.495 6 1 C6 1.66 6 2.32 6 3 C4.02 3.66 2.04 4.32 0 5 C0 3.35 0 1.7 0 0 Z M6 0 C10 1 10 1 10 1 Z " fill="#D0C2B9" transform="translate(224,73)"/>
<path d="M0 0 C1.32 0 2.64 0 4 0 C4 1.65 4 3.3 4 5 C3.01 5.495 3.01 5.495 2 6 C1.67 5.01 1.34 4.02 1 3 C0.67 4.32 0.34 5.64 0 7 C0 4.69 0 2.38 0 0 Z " fill="#D2C1BD" transform="translate(74,124)"/>
<path d="M0 0 C1.32 0 2.64 0 4 0 C4 0.66 4 1.32 4 2 C2.37373596 3.38232443 0.7074998 4.71937515 -1 6 C-1.625 4.125 -1.625 4.125 -2 2 C-1.34 1.34 -0.68 0.68 0 0 Z " fill="#2F1E19" transform="translate(96,105)"/>
<path d="M0 0 C5.41538462 -0.36923077 5.41538462 -0.36923077 8.375 1.5 C8.91125 1.995 9.4475 2.49 10 3 C7 3 4 3 1 3 C0.67 2.01 0.34 1.02 0 0 Z " fill="#C0A99F" transform="translate(159,103)"/>
<path d="M0 0 C-3.63423209 2.32590854 -6.77088331 2.16265833 -11 2 C-11.33 1.34 -11.66 0.68 -12 0 C-7.6835078 -0.76173392 -4.25566547 -1.16063604 0 0 Z " fill="#D1C3B6" transform="translate(68,96)"/>
<path d="M0 0 C-1.125 1.5 -1.125 1.5 -3 3 C-6.1875 3.1875 -6.1875 3.1875 -9 3 C-9 2.34 -9 1.68 -9 1 C-6.04335481 -0.4783226 -3.25770263 -0.06032783 0 0 Z " fill="#CEC0B7" transform="translate(251,94)"/>
<path d="M0 0 C0.99 0.33 1.98 0.66 3 1 C2.67 3.97 2.34 6.94 2 10 C-0.4294516 6.3558226 -0.16179575 4.28758728 0 0 Z " fill="#C6B8AB" transform="translate(140,55)"/>
<path d="M0 0 C1.9453125 -0.29296875 1.9453125 -0.29296875 4.125 -0.1875 C5.40375 -0.125625 6.6825 -0.06375 8 0 C7.67 0.99 7.34 1.98 7 3 C4.03 3 1.06 3 -2 3 C-1.34 2.01 -0.68 1.02 0 0 Z " fill="#DDCFC6" transform="translate(219,159)"/>
<path d="M0 0 C1.98 0 3.96 0 6 0 C6 0.99 6 1.98 6 3 C4.02 3 2.04 3 0 3 C0 2.01 0 1.02 0 0 Z " fill="#281A15" transform="translate(86,130)"/>
<path d="M0 0 C0.66 0.33 1.32 0.66 2 1 C2 1.99 2 2.98 2 4 C1.34 4 0.68 4 0 4 C-0.33 5.65 -0.66 7.3 -1 9 C-1.33 9 -1.66 9 -2 9 C-2.25 3.375 -2.25 3.375 0 0 Z " fill="#1B0806" transform="translate(101,121)"/>
<path d="M0 0 C0.66 0 1.32 0 2 0 C2.33 2.31 2.66 4.62 3 7 C2.01 7.33 1.02 7.66 0 8 C0 5.36 0 2.72 0 0 Z " fill="#DCC6C4" transform="translate(97,113)"/>
<path d="M0 0 C3 1 3 1 4 3 C4.04022391 5.3329866 4.04320247 7.66706666 4 10 C1.04816899 7.04816899 0.91336012 4.04488053 0 0 Z " fill="#BFABA9" transform="translate(84,109)"/>
<path d="M0 0 C2.31 0.66 4.62 1.32 7 2 C7 2.66 7 3.32 7 4 C4.69 3.67 2.38 3.34 0 3 C0 2.01 0 1.02 0 0 Z " fill="#775150" transform="translate(128,106)"/>
<path d="M0 0 C-0.99 0 -1.98 0 -3 0 C-3 0.99 -3 1.98 -3 3 C-5.97 2.505 -5.97 2.505 -9 2 C-8 0 -8 0 -6.1875 -0.6875 C-3.81180233 -1.02688538 -2.26664171 -0.72856341 0 0 Z " fill="#B1978B" transform="translate(136,102)"/>
<path d="M0 0 C0.66 0 1.32 0 2 0 C2 2.31 2 4.62 2 7 C0.35 7 -1.3 7 -3 7 C-2.67 6.01 -2.34 5.02 -2 4 C-1.34 3.67 -0.68 3.34 0 3 C0 2.01 0 1.02 0 0 Z " fill="#C1AB9C" transform="translate(156,125)"/>
<path d="M0 0 C3.96 0.99 3.96 0.99 8 2 C4.5980513 4.09350689 1.94727588 4.17942163 -2 4 C-2 3.34 -2 2.68 -2 2 C-1.34 2 -0.68 2 0 2 C0 1.34 0 0.68 0 0 Z " fill="#B9A8A3" transform="translate(75,118)"/>
<path d="M0 0 C0.33 0.66 0.66 1.32 1 2 C1.66 2.33 2.32 2.66 3 3 C-0.625 6 -0.625 6 -4 6 C-3.34 4.68 -2.68 3.36 -2 2 C-1.34 2 -0.68 2 0 2 C0 1.34 0 0.68 0 0 Z " fill="#C9BBB3" transform="translate(171,106)"/>
<path d="M0 0 C2.31 0.66 4.62 1.32 7 2 C7 2.99 7 3.98 7 5 C4.03 4.505 4.03 4.505 1 4 C0.67 2.68 0.34 1.36 0 0 Z " fill="#DED0C8" transform="translate(101,105)"/>
<path d="M0 0 C2.97 0.33 5.94 0.66 9 1 C9 1.66 9 2.32 9 3 C6.69 3.33 4.38 3.66 2 4 C1.34 2.68 0.68 1.36 0 0 Z " fill="#C9B0A1" transform="translate(135,137)"/>
<path d="M0 0 C2.31 0.66 4.62 1.32 7 2 C6.01 3.485 6.01 3.485 5 5 C3.68 4.67 2.36 4.34 1 4 C0.67 2.68 0.34 1.36 0 0 Z " fill="#9A7C7A" transform="translate(126,121)"/>
<path d="M0 0 C0 0.66 0 1.32 0 2 C-3.01031744 2.93423645 -3.86650268 3.04449911 -7 2 C-5.20949654 -1.58100692 -3.4370813 -1.03112439 0 0 Z " fill="#664040" transform="translate(133,117)"/>
<path d="M0 0 C2.33944736 0.28730055 4.6739143 0.61936779 7 1 C6.401875 1.28875 5.80375 1.5775 5.1875 1.875 C2.80672208 3.04742026 2.80672208 3.04742026 0 5 C-0.5625 3.0625 -0.5625 3.0625 -1 1 C-0.67 0.67 -0.34 0.34 0 0 Z " fill="#D2C4B8" transform="translate(192,71)"/>
<path d="M0 0 C-0.99 1.485 -0.99 1.485 -2 3 C-3.32 3 -4.64 3 -6 3 C-6 2.34 -6 1.68 -6 1 C-6.66 0.67 -7.32 0.34 -8 0 C-4.71023192 -1.09658936 -3.28696233 -0.79953138 0 0 Z " fill="#D0C2B5" transform="translate(56,34)"/>
</svg>
